<?xml version="1.0" encoding="utf-8"?>
<!-- Generator: Adobe Illustrator 18.1.1, SVG Export Plug-In . SVG Version: 6.00 Build 0)  -->
<svg version="1.1" id="Layer_1" xmlns="http://www.w3.org/2000/svg" xmlns:xlink="http://www.w3.org/1999/xlink" x="0px" y="0px"
	 viewBox="0 134.7 300 30" enable-background="new 0 134.7 300 30" xml:space="preserve">
<path fill="#826E6E" d="M124.8,150c0,7.5-4.9,13-13.6,13H100V137h11.2C119.6,136.9,124.8,142.5,124.8,150 M103.2,139.9v19.9h7.9
	c6.7,0,10.4-4.1,10.4-10s-3.8-10-10.4-10C111.1,139.9,103.2,139.9,103.2,139.9z"/>
<polygon fill="#826E6E" points="70.5,136.9 72.3,136.9 89,156.4 89,136.9 92.3,136.9 92.3,163 90.7,163 73.8,143.6 73.8,163 
	70.5,163 "/>
<path fill="#826E6E" d="M225.1,136.9h2.7l12.8,25.9h-3.5l-3.5-7h-14.3l-3.4,7h-3.4L225.1,136.9z M232.1,152.9l-5.7-11.5l-5.7,11.5
	C220.6,152.9,232.1,152.9,232.1,152.9z"/>
<polygon fill="#826E6E" points="189.3,136.9 192.5,136.9 192.5,160 209.5,160 209.5,163 189.3,163 "/>
<path fill="#826E6E" d="M158.5,136.9h14.9c5,0,8.2,2.7,8.2,7.2c0,3.7-2.3,6.7-6.1,7.4l6.5,11.5h-3.5l-6.5-11.3h-10.1V163h-3.3V136.9
	z M173.2,148.5c3.3,0,4.9-1.5,4.9-4.2c0-2.7-1.6-4.4-4.8-4.4h-11.6v8.6H173.2z"/>
<polygon fill="#826E6E" points="130.5,136.9 150.8,136.9 150.8,139.9 133.6,139.9 133.6,147.5 144.1,147.5 144.1,150.5 133.6,150.5 
	133.6,160 151.9,160 151.9,163 130.5,163 "/>
<path fill="#826E6E" d="M299.7,150c0,7.5-4.9,13-13.6,13h-11V137h11C294.5,136.9,299.7,142.5,299.7,150 M278.3,139.9v19.9h7.9
	c6.7,0,10.4-4.1,10.4-10s-3.8-10-10.4-10C286.2,139.9,278.3,139.9,278.3,139.9z"/>
<polygon fill="#826E6E" points="245.6,136.9 247.2,136.9 264,156.4 264,136.9 267.3,136.9 267.3,163 265.6,163 248.7,143.6 
	248.7,163 245.6,163 "/>
<path fill="#826E6E" d="M37.9,150c0-7.9,5.7-13.6,13.4-13.6c7.8,0,13.5,5.7,13.5,13.6s-5.7,13.6-13.5,13.6
	C43.6,163.6,37.9,157.9,37.9,150 M61.5,150c0-6.1-4.2-10.6-10.1-10.6c-5.7,0-10.1,4.4-10.1,10.6c0,6.1,4.4,10.5,10.1,10.5
	C57.3,160.5,61.5,156.1,61.5,150"/>
<polygon fill="#826E6E" points="0.3,136.9 3.4,136.9 9.8,157 16.5,136.9 19.4,136.9 25.9,157 32.3,136.9 35.5,136.9 27,163 
	24.7,163 17.9,142.1 11,163 8.7,163 "/>
</svg>
